<svg width="35" height="24" viewBox="0 0 35 24" fill="none" xmlns="http://www.w3.org/2000/svg">
<rect x="0.5" y="0.5" width="34" height="23" rx="3.5" fill="white" stroke="#D9D9D9"/>
<path d="M27.5342 12.6078L21.9551 11.7285L22.6947 15.0721L27.5342 12.6078Z" fill="#D12053"/>
<path d="M27.5351 12.609L23.331 6.73438L21.957 11.7307L27.5351 12.609Z" fill="#E2136E"/>
<path d="M21.8269 11.6619L17.4219 6L23.1903 6.69306L21.8269 11.6619Z" fill="#D12053"/>
<path d="M19.8211 9.29486L17.375 6.97656H18.0189L19.8211 9.29486Z" fill="#9E1638"/>
<path d="M28.725 9.75195L27.6898 12.576L26.0117 10.2419L28.725 9.75195Z" fill="#D12053"/>
<path d="M23.3478 14.903L27.4099 13.2619L27.5803 12.7402L23.3478 14.903Z" fill="#E2136E"/>
<path d="M20.1016 17.9985L21.8417 11.8594L22.7244 15.8537L20.1016 17.9985Z" fill="#9E1638"/>
<path d="M28.8861 9.77344L28.459 10.9395L29.9992 10.9141L28.8861 9.77344Z" fill="#E2136E"/>
<path d="M5 10.2422C5.0747 10.2485 5.15045 10.2623 5.2304 10.2623C5.31036 10.2623 5.37559 10.2485 5.4608 10.2422V12.7256C5.70383 12.3097 6.00998 12.0357 6.46027 12.0357C7.27456 12.0357 7.62385 12.8462 7.62385 13.5911C7.62385 14.4831 7.15042 15.3369 6.32034 15.3369C6.15415 15.3406 5.99012 15.2985 5.84603 15.2151C5.70194 15.1317 5.58328 15.0103 5.50289 14.864C5.36401 14.9867 5.24092 15.1338 5.10941 15.2671H5.00421L5 10.2422ZM5.45028 13.8948C5.45028 14.6185 5.75538 15.1232 6.25722 15.1232C6.90845 15.1232 7.11781 14.2429 7.11781 13.6186C7.11781 12.8938 6.88004 12.3235 6.31613 12.3171C5.65754 12.3118 5.45028 13.0959 5.45028 13.8958" fill="#E2136E"/>
<path d="M9.748 11.8485L9.25774 12.4834C9.71854 13.1606 10.1962 13.824 10.6591 14.5097L11.1262 15.2503V15.2874C11.0115 15.28 10.9074 15.2652 10.8106 15.2652C10.7138 15.2652 10.5918 15.28 10.4887 15.2874C10.3614 15.0504 10.2351 14.8313 10.091 14.6165L8.82849 12.7384C8.80009 12.7088 8.7317 12.6855 8.7317 12.7162V15.2874C8.63912 15.28 8.55811 15.2652 8.47816 15.2652C8.3982 15.2652 8.30562 15.28 8.22461 15.2874V10.2424C8.30562 10.2487 8.39294 10.2646 8.47816 10.2646C8.56337 10.2646 8.63912 10.2487 8.7317 10.2424V12.5194C8.7317 12.5638 8.81797 12.5342 8.87479 12.4749C8.98437 12.3607 9.08696 12.2398 9.18199 12.1131L10.6012 10.2402C10.6759 10.2466 10.7506 10.2625 10.8316 10.2625C10.9126 10.2625 10.9747 10.2466 11.0568 10.2402L9.748 11.8485Z" fill="#231F20"/>
<path d="M13.5661 14.7185C13.5661 14.9809 13.5493 15.1142 13.8891 15.0275V15.1745C13.8336 15.2025 13.7754 15.2248 13.7155 15.2412C13.4156 15.3015 13.1674 15.2476 13.1211 14.8529L13.0695 14.9111C12.9693 15.0432 12.84 15.1501 12.6918 15.2236C12.5436 15.297 12.3805 15.3349 12.2152 15.3343C11.807 15.3343 11.4493 15.0105 11.4493 14.5143C11.4493 13.7493 11.9754 13.6488 12.5151 13.5482C12.9717 13.4615 13.1274 13.4213 13.1274 13.0985C13.1274 12.6012 12.8854 12.3134 12.453 12.3134C12.3053 12.3105 12.1603 12.3533 12.0377 12.436C11.915 12.5187 11.8205 12.6373 11.7671 12.7758H11.7039V12.4034C11.9636 12.1762 12.2932 12.0461 12.6371 12.0352C13.2421 12.0352 13.5714 12.4034 13.5714 13.162L13.5661 14.7185ZM13.1053 13.6107L12.9022 13.6572C12.5098 13.744 11.9217 13.8107 11.9217 14.4233C11.9217 14.8465 12.1321 15.0582 12.4856 15.0582C12.6685 15.0355 12.8357 14.9431 12.9527 14.8C12.9948 14.7513 13.1106 14.637 13.1106 14.5884L13.1053 13.6107Z" fill="#231F20"/>
<path d="M14.5911 14.6289C14.7279 14.8923 14.9825 15.1283 15.2539 15.1283C15.4088 15.1203 15.5545 15.0521 15.6602 14.9379C15.7658 14.8237 15.8231 14.6726 15.8199 14.5167C15.8199 13.611 14.4575 14.1993 14.4575 13.0269C14.4575 12.3836 14.8783 12.0355 15.397 12.0355C15.6263 12.0303 15.8524 12.0905 16.0493 12.209C15.9925 12.3642 15.9467 12.5233 15.9125 12.6851H15.8599C15.7841 12.464 15.5832 12.2418 15.3696 12.2418C15.0814 12.2418 14.8436 12.4375 14.8436 12.8005C14.8436 13.6586 16.206 13.2015 16.206 14.2755C16.206 14.9939 15.6526 15.3336 15.1434 15.3336C14.8884 15.3334 14.6388 15.2599 14.4238 15.1219C14.4755 14.961 14.5159 14.7966 14.5448 14.6299L14.5911 14.6289Z" fill="#231F20"/>
<path d="M16.9844 10.2422C17.0612 10.2485 17.1359 10.2623 17.2158 10.2623C17.2958 10.2623 17.361 10.2485 17.4473 10.2422V12.6853C17.6493 12.2759 17.966 12.0357 18.3763 12.0357C19.0454 12.0357 19.3052 12.497 19.3052 13.3435V15.2872C19.2179 15.2798 19.1506 15.2671 19.0738 15.2671C18.997 15.2671 18.9181 15.2809 18.8423 15.2872V13.4969C18.8423 12.7562 18.694 12.3827 18.2027 12.3827C17.6829 12.3827 17.4473 12.7594 17.4473 13.4567V15.2872C17.361 15.2798 17.2926 15.2671 17.2158 15.2671C17.139 15.2671 17.0622 15.2809 16.9844 15.2872V10.2422Z" fill="#231F20"/>
</svg>
