<svg width="35" height="24" viewBox="0 0 35 24" fill="none" xmlns="http://www.w3.org/2000/svg">
<rect x="0.5" y="0.5" width="34" height="23" rx="3.5" fill="white" stroke="#D9D9D9"/>
<path d="M21.2494 10.2695H16.8494C16.7623 10.2695 16.7188 10.3349 16.7188 10.4002V10.7487C16.7188 10.8359 16.7841 10.8794 16.8494 10.8794H20.1386V12.7091C20.0514 12.5784 19.9425 12.4477 19.8336 12.3171C19.4415 11.925 19.0277 11.7289 18.592 11.7289C18.2435 11.7289 17.9603 11.9032 17.7207 12.2081C17.5247 12.4695 17.4158 12.7745 17.4158 13.0576C17.4158 13.3408 17.4593 13.7111 17.6772 14.0596C17.9386 14.4735 18.3742 14.6042 18.7663 14.6042C19.2673 14.6042 19.6811 14.2557 19.6811 13.7982C19.6811 13.5369 19.5504 13.319 19.3108 13.1666L19.0712 13.0359V13.4279C19.0494 13.5369 18.8752 13.6893 18.6791 13.6893C18.5049 13.6893 18.3524 13.624 18.2435 13.5151C18.1782 13.4497 18.1346 13.319 18.1564 13.2319C18.1564 13.1012 18.1999 12.9923 18.2871 12.8834C18.396 12.7527 18.5049 12.6874 18.6791 12.6874C19.1148 12.6874 19.4851 12.8834 19.79 13.319C20.0296 13.6893 20.1603 14.0378 20.1603 14.4299V15.3448L20.8138 15.7369C20.8356 15.7586 20.8574 15.7586 20.8791 15.7586C20.9663 15.7586 21.0098 15.6933 21.0098 15.6279V10.9012H21.2712C21.3584 10.9012 21.4019 10.8359 21.4019 10.7705V10.422C21.4019 10.3349 21.3366 10.2695 21.2494 10.2695Z" fill="#ED1C24"/>
<path d="M30.0487 10.2691H24.4724C24.3853 10.2691 24.3417 10.3344 24.3417 10.3998V11.0097C23.7972 10.4433 23.318 10.1602 22.8823 10.1602C22.4685 10.1602 22.12 10.2473 21.815 10.4869C21.5318 10.7047 21.3576 10.9879 21.3576 11.3146C21.3576 12.2948 22.4467 12.273 22.7299 12.1423C22.7734 12.1206 22.8388 12.077 22.9041 12.077C23.1219 12.077 23.2091 12.2512 23.2091 12.4037C23.2091 12.6215 22.8823 12.8176 22.4902 12.8176C22.2724 12.8176 22.1417 12.7522 22.0546 12.6215L21.8803 12.3602L21.7714 12.6651C21.7497 12.7305 21.7061 12.8176 21.7061 12.9265C21.7061 13.1443 21.815 13.3621 22.0328 13.5582C22.2289 13.7324 22.4685 13.8196 22.7299 13.8196C23.1437 13.8196 23.4922 13.6671 23.7101 13.3621C23.9061 13.1225 23.9932 12.8394 23.9932 12.5126C23.9932 12.3384 23.9279 12.1423 23.7754 11.9245C23.6011 11.6631 23.3833 11.5324 23.1437 11.5324C23.0566 11.5324 22.9477 11.5542 22.8388 11.5978C22.7952 11.6196 22.7081 11.6413 22.6863 11.6413C22.6427 11.6413 22.5774 11.6196 22.5338 11.5542C22.4902 11.5107 22.4467 11.4453 22.4467 11.3364C22.4467 11.0968 22.6645 10.8572 23.0566 10.8572H23.0784C23.3398 10.8572 23.6011 10.9879 23.8407 11.2275C24.0368 11.4235 24.1893 11.6196 24.32 11.8374V15.3007L24.9734 15.6928C24.9952 15.7146 25.017 15.7146 25.0388 15.7146C25.1259 15.7146 25.1695 15.6493 25.1695 15.5839V10.9008H26.1714V13.9285L26.9556 14.2552H26.9992C27.0645 14.2552 27.1299 14.2116 27.1299 14.1245V14.1027C27.2605 13.2097 27.6526 12.5998 28.3061 12.2295V12.4037C28.3061 12.5344 28.3061 12.8611 28.3279 13.0354C28.3279 13.1443 28.3279 13.2097 28.3497 13.275C28.3497 13.6235 28.3932 14.1463 28.5021 14.5384C28.72 15.279 29.0902 15.4532 29.3516 15.4532H29.3734C29.5259 15.4532 29.6566 15.4097 29.7437 15.3225C29.7873 15.279 29.8526 15.1918 29.8526 15.0394C29.8526 14.9087 29.8308 14.7998 29.7873 14.7126L29.7219 14.6037L29.5912 14.6255C29.4605 14.6691 29.3952 14.6691 29.3952 14.6473H29.3734C29.3299 14.6473 29.3299 14.6473 29.3081 14.6255C29.2645 14.6037 29.1774 14.5384 29.112 14.2988C29.0685 14.1245 29.0467 13.8849 29.0467 13.7542C29.0467 12.774 29.2427 12.0334 29.5695 11.8809H29.5912C29.6348 11.8592 29.6784 11.8156 29.6784 11.7503C29.6784 11.7285 29.6784 11.7067 29.6566 11.6849V11.6631C29.5041 11.3582 29.1774 11.1404 28.7417 11.0314H28.6546C28.3061 11.0968 27.8922 11.3364 27.3695 11.772C27.2388 11.8809 27.1081 11.9899 26.9992 12.0988V10.9008H30.0487C30.1358 10.9008 30.1794 10.8354 30.1794 10.7701V10.4215C30.2011 10.3344 30.1358 10.2691 30.0487 10.2691Z" fill="#ED1C24"/>
<path d="M15.2812 11.8812C15.2812 12.0337 15.2812 12.1644 15.2594 12.2951C15.2158 12.905 15.0634 13.4713 14.8238 13.9941C14.7366 14.2119 14.6277 14.4079 14.497 14.604C13.5822 16.0416 11.9703 17 10.1406 17C9.35644 17 8.61584 16.8258 7.96238 16.5208C6.2198 15.7149 5 13.9287 5 11.8812C5 9.85545 6.17624 8.11288 7.85347 7.28516C7.72277 7.45941 7.59208 7.63367 7.48317 7.82971C7.48317 7.85149 7.46139 7.85149 7.46139 7.87328C7.39604 7.93862 7.33069 7.98219 7.26535 8.04753C7.17822 8.11288 7.11287 8.20001 7.02574 8.26535L6.98218 8.30892L6.93861 8.35248C6.91683 8.37427 6.89505 8.41783 6.85149 8.43961C6.80792 8.50496 6.74257 8.5703 6.69901 8.63565C6.48119 8.91882 6.30693 9.22377 6.17624 9.5505C6.15446 9.57228 6.15446 9.61585 6.13267 9.63763C6.11089 9.6812 6.11089 9.72476 6.08911 9.74654C6.08911 9.76832 6.06733 9.79011 6.06733 9.81189C6.04554 9.87724 6.02376 9.9208 6.00198 9.98615C5.9802 10.0297 5.9802 10.0733 5.95842 10.0951C5.95842 10.1168 5.93663 10.1386 5.93663 10.1604C5.93663 10.204 5.91485 10.2475 5.91485 10.2911L5.8495 10.6832C5.8495 10.7267 5.8495 10.7485 5.82772 10.7921V11.3149C5.82772 12.7089 6.45941 13.9723 7.48317 14.7782C8.26733 15.4099 9.24752 15.802 10.3149 15.802C11.295 15.802 12.1881 15.497 12.9287 14.9525C13.4733 14.5604 13.9089 14.0594 14.2356 13.4713C14.2792 13.3842 14.3228 13.3188 14.3663 13.2317C14.6277 12.6871 14.7802 12.099 14.7802 11.4673V11.3149C14.7802 11.1624 14.7802 11.0317 14.7584 10.8792L14.7802 10.901C14.8455 10.9663 14.9109 11.0099 14.9762 11.0753C15.0416 10.9663 15.1069 10.8792 15.1723 10.7703C15.2158 10.9663 15.2376 11.1624 15.2594 11.3802C15.2812 11.5762 15.2812 11.7287 15.2812 11.8812Z" fill="#ED1C24"/>
<path d="M10.7509 7.76436L9.79249 6C8.20239 6.71881 7.11328 8.30891 7.11328 10.1604C7.11328 11.097 7.39645 11.9683 7.87566 12.6871C7.83209 12.4475 7.83209 12.2079 7.83209 11.9465C7.85388 10.0515 9.0519 8.4396 10.7509 7.76436Z" fill="#F7941D"/>
<path d="M11.5127 8.63551C11.9048 8.5266 12.3404 8.48304 12.7543 8.48304C13.0157 8.48304 13.2988 8.50482 13.5384 8.54838L13.5167 7.76422L13.4731 6.19591C13.2988 6.17413 13.1028 6.15234 12.9068 6.15234C12.0355 6.15234 11.2295 6.43551 10.5761 6.89294L11.0988 7.85135C10.1622 8.17809 9.39982 8.83155 8.92061 9.68106C8.68101 10.0949 8.50675 10.5741 8.44141 11.0751C8.5721 10.8137 8.72457 10.5741 8.89883 10.3563C9.53052 9.52858 10.4454 8.8969 11.5127 8.63551Z" fill="#ED1C24"/>
<path d="M13.8017 7.74219L13.8452 8.85308C13.4749 8.74417 13.1046 8.67882 12.6908 8.67882C11.9284 8.67882 11.2096 8.89664 10.5779 9.26694C9.79376 9.74615 9.18386 10.5085 8.87891 11.4016C9.18386 10.9877 9.55415 10.6174 9.9898 10.3343C10.6215 9.92041 11.3839 9.6808 12.1898 9.6808C12.7997 9.6808 13.366 9.81149 13.8888 10.0511C14.2809 10.2254 14.6294 10.465 14.9344 10.7699L15.5443 9.85506L16.3284 8.65704C15.6314 8.0907 14.7601 7.74219 13.8017 7.74219Z" fill="#F7941D"/>
<path d="M14.7806 11.3596V11.512C14.7806 12.4269 14.4103 13.1893 14.3667 13.2764C14.3232 13.3635 14.2796 13.4289 14.236 13.516C13.9093 14.1041 13.4737 14.6051 12.9291 14.9972C12.1885 15.5199 11.2955 15.8467 10.3153 15.8467C9.24793 15.8467 8.24595 15.4764 7.48357 14.8229C6.48159 13.9952 5.82812 12.7536 5.82812 11.3596V10.8368C5.82812 10.7932 5.82812 10.7714 5.84991 10.7279L5.91525 10.3358C5.91525 10.2922 5.93704 10.2487 5.93704 10.2051C5.93704 10.1833 5.95882 10.1615 5.95882 10.1398C5.9806 10.0962 5.9806 10.0526 6.00238 10.0308C6.02416 9.96549 6.04595 9.90015 6.06773 9.85658C6.06773 9.8348 6.08951 9.81302 6.08951 9.79124C6.11129 9.74767 6.11129 9.70411 6.13308 9.68233C6.15486 9.66054 6.15486 9.61698 6.17664 9.5952C6.30733 9.26846 6.50337 8.96351 6.69941 8.68034C6.74298 8.615 6.80832 8.54965 6.85189 8.48431C6.87367 8.46252 6.89545 8.41896 6.93902 8.39718C6.9608 8.37539 6.9608 8.35361 6.98258 8.35361C7.00436 8.33183 7.00436 8.31005 7.02614 8.31005C7.09149 8.22292 7.17862 8.15757 7.26575 8.09223C7.33109 8.02688 7.39644 7.98332 7.46179 7.91797C7.46179 7.93975 7.44001 7.93975 7.44001 7.96153C7.44001 7.98332 7.41822 8.0051 7.41822 8.0051C7.15684 8.52787 6.98258 9.15955 6.91723 9.81302C6.89545 9.98728 6.89545 10.1615 6.89545 10.3576C6.89545 12.71 8.26773 14.6051 9.96674 14.6051H10.141C10.3806 14.6051 10.6202 14.5615 10.8598 14.518C12.0143 14.213 12.8638 13.1457 12.8638 11.9041V11.8388C12.842 11.0982 12.537 10.4229 12.036 9.96549C12.3846 9.96549 12.7331 10.0308 13.0598 10.118C13.6915 10.2704 14.2578 10.5754 14.7588 10.9675L14.7806 10.9893C14.7588 11.0764 14.7806 11.2289 14.7806 11.3596Z" fill="#F7941D"/>
<path d="M14.7779 11.3588V11.5113C14.7779 12.4697 14.3422 13.2974 14.3422 13.2974C14.2987 13.3845 14.2551 13.4499 14.2115 13.537C13.8848 14.1251 13.4274 14.6261 12.8828 15.0182C12.1205 15.5845 11.2056 15.8677 10.2472 15.8677C9.20165 15.8677 8.19967 15.4974 7.39373 14.8439C6.34818 13.9944 5.73828 12.7093 5.73828 11.3588C5.73828 10.0083 6.34818 8.72315 7.39373 7.87364L7.43729 7.83008C7.43729 7.85186 7.41551 7.85186 7.41551 7.87364C7.41551 7.89542 7.39373 7.89542 7.39373 7.91721C6.36996 8.76671 5.78185 10.0083 5.78185 11.3588C5.78185 12.7093 6.36996 13.9509 7.41551 14.8222C8.19967 15.4756 9.22343 15.8241 10.2472 15.8241C11.1838 15.8241 12.0987 15.541 12.8611 14.9746C13.4056 14.5826 13.8413 14.0816 14.168 13.4934C14.2115 13.4063 14.2551 13.341 14.2769 13.2538C14.2769 13.2538 14.7125 12.4479 14.7125 11.4895V11.337C14.7125 11.1845 14.7125 11.0538 14.6908 10.9014V10.8796L14.7125 10.9014L14.7343 10.9231C14.7779 11.0974 14.7779 11.2281 14.7779 11.3588Z" fill="#F7941D"/>
</svg>
