<svg width="35" height="24" viewBox="0 0 35 24" fill="none" xmlns="http://www.w3.org/2000/svg">
<rect x="0.5" y="0.5" width="34" height="23" rx="3.5" fill="white" stroke="#D9D9D9"/>
<mask id="mask0_599_55408" style="mask-type:luminance" maskUnits="userSpaceOnUse" x="13" y="6" width="10" height="7">
<path d="M18.1216 6.30859C15.4417 6.30859 13.2657 7.65972 13.2657 9.33041C13.2657 11.0011 15.4417 12.3522 18.1216 12.3522C20.8069 12.3522 22.9829 11.0011 22.9829 9.33041C22.9829 7.65972 20.8069 6.30859 18.1216 6.30859Z" fill="white"/>
</mask>
<g mask="url(#mask0_599_55408)">
<path d="M22.9829 6.30859H13.2657V12.3522H22.9829V6.30859Z" fill="url(#paint0_linear_599_55408)"/>
</g>
<mask id="mask1_599_55408" style="mask-type:luminance" maskUnits="userSpaceOnUse" x="13" y="6" width="10" height="7">
<path d="M20.7846 6.48775C20.6628 6.4373 20.541 6.39244 20.4137 6.3532C20.3694 6.33638 20.3306 6.32517 20.2863 6.31396C20.159 6.27471 20.0316 6.23547 19.9043 6.20744C19.8434 6.19062 19.788 6.1794 19.7216 6.16819C19.5942 6.14016 19.4613 6.11213 19.3285 6.09531C18.9409 6.03364 18.5367 6 18.1214 6C15.4416 6 13.2656 7.35113 13.2656 9.02182C13.2656 10.3001 14.5446 11.3933 16.3441 11.8362C16.8258 11.9539 17.3407 12.0268 17.8778 12.038C17.9553 12.0436 18.0439 12.0436 18.1214 12.0436C18.1879 12.0436 18.2543 12.0436 18.3208 12.038C18.7914 12.0268 19.2454 11.9708 19.6717 11.8867C19.7936 11.8586 19.9209 11.8306 20.0372 11.797C20.4524 11.6848 20.84 11.5391 21.1833 11.3653C22.2796 10.8102 22.9772 9.96369 22.9772 9.02182C22.9828 7.95661 22.1079 7.02596 20.7846 6.48775Z" fill="white"/>
</mask>
<g mask="url(#mask1_599_55408)">
<path d="M22.9828 5.99414H13.2656V12.0378H22.9828V5.99414Z" fill="url(#paint1_linear_599_55408)"/>
</g>
<path d="M19.7361 6.16273C19.6088 6.13469 19.4759 6.10666 19.343 6.08984C18.8336 6.25803 15.0187 7.56431 15.0353 9.20137C15.0464 10.0928 15.96 11.3318 16.3531 11.8307C16.8348 11.9485 17.3497 12.0214 17.8868 12.0326C17.4383 11.5224 16.2091 10.0703 16.0873 9.16773C15.8714 7.62598 19.271 6.33092 19.7361 6.16273Z" fill="#304B8D"/>
<path d="M17.3575 9.0102C17.0807 7.54695 19.8989 6.45371 20.2976 6.31355C20.1702 6.27431 20.0429 6.23506 19.9155 6.20703C19.4172 6.38083 16.228 7.55816 16.3388 9.06627C16.4163 10.0474 17.95 11.6508 18.332 12.032C18.8026 12.0208 19.2567 11.9647 19.683 11.8807C19.1902 11.4434 17.5845 9.95207 17.3575 9.0102Z" fill="#CD3938"/>
<path d="M18.5902 8.84834C18.2524 7.47478 20.4284 6.62262 20.7938 6.48807C20.672 6.43761 20.5502 6.39276 20.4229 6.35352C19.9301 6.53853 17.4164 7.57009 17.6212 8.93243C17.7652 9.90233 19.6034 11.4385 20.0464 11.7973C20.4616 11.6852 20.8492 11.5394 21.1925 11.3656C20.6388 10.9956 18.9113 9.79021 18.5902 8.84834Z" fill="#5B9F5C"/>
<path d="M17.1039 16.9507C17.0432 16.9583 16.9901 16.9622 16.8801 17.135L16.6411 17.4999V17.8111C16.6411 17.9263 16.6601 17.9532 16.808 17.957V17.9878H16.3111V17.957C16.4704 17.9532 16.4742 17.9186 16.4742 17.7957V17.5153L16.2617 17.208C16.0986 16.966 16.0721 16.9622 16 16.9545V16.9238H16.4552V16.9545C16.3793 16.9583 16.3414 16.9583 16.3414 17.0044L16.368 17.0736L16.607 17.427L16.8384 17.0659L16.8611 17.0044C16.8611 16.9545 16.7966 16.9507 16.7511 16.9507V16.9199H17.1077V16.9507H17.1039Z" fill="#101312"/>
<path d="M17.5418 17.9603C17.4166 17.9603 17.3028 17.8605 17.3028 17.6185C17.3028 17.365 17.428 17.2766 17.5418 17.2766C17.6556 17.2766 17.7808 17.365 17.7808 17.6185C17.777 17.8605 17.6632 17.9603 17.5418 17.9603ZM17.5418 17.9988C17.7429 17.9988 17.9098 17.8528 17.9098 17.6185C17.9098 17.365 17.7239 17.2344 17.5418 17.2344C17.3559 17.2344 17.1738 17.365 17.1738 17.6185C17.1738 17.8528 17.3369 17.9988 17.5418 17.9988Z" fill="#101312"/>
<path d="M18.7347 17.2691C18.6474 17.2768 18.6285 17.296 18.6285 17.4113V17.7032C18.6285 17.7915 18.6285 17.999 18.3364 17.999C18.0595 17.999 18.0595 17.7839 18.0595 17.7186V17.3729C18.0595 17.2922 18.0443 17.2768 17.957 17.273V17.2461H18.2757V17.2653C18.1884 17.273 18.1733 17.2883 18.1733 17.3652V17.7186C18.1733 17.7915 18.1733 17.9452 18.3705 17.9452C18.4578 17.9452 18.5223 17.9106 18.5564 17.8568C18.5716 17.8338 18.583 17.7954 18.583 17.7032V17.4036C18.583 17.2845 18.5564 17.2653 18.4767 17.2615V17.2461H18.7385V17.2691H18.7347Z" fill="#101312"/>
<path d="M18.9821 17.3306C18.9821 17.296 18.9935 17.2922 19.0504 17.2922C19.0959 17.2922 19.2438 17.296 19.2438 17.442C19.2438 17.5995 19.0769 17.6033 18.9821 17.6033V17.3306ZM19.4942 17.9644C19.4487 17.9605 19.4221 17.9413 19.3956 17.9106L19.1642 17.6302C19.2211 17.6187 19.3652 17.5918 19.3652 17.442C19.3652 17.273 19.1793 17.2461 19.0807 17.2461H18.7734V17.2653C18.8531 17.273 18.8683 17.2845 18.8683 17.3652V17.8453C18.8683 17.9298 18.8645 17.949 18.7734 17.9567V17.9797H19.0845V17.9567C18.9935 17.9529 18.9821 17.9298 18.9821 17.8568V17.6379L19.0466 17.634L19.3121 17.9759H19.4942V17.9644Z" fill="#101312"/>
<path d="M20.6392 17.984H20.165V17.9533C20.3129 17.9494 20.3167 17.911 20.3167 17.7919V16.9891H20.2295C20.0512 16.9891 20.0095 17.0199 19.9715 17.1965H19.9336L19.945 16.9238H20.8592L20.8706 17.1965H20.8327C20.7985 17.0199 20.753 16.9891 20.5747 16.9891H20.4874V17.8111C20.4874 17.9187 20.5102 17.9532 20.643 17.9571V17.984H20.6392Z" fill="#101312"/>
<path d="M21.1283 17.3306C21.1283 17.296 21.1359 17.2922 21.1966 17.2922C21.2421 17.2922 21.3901 17.296 21.3901 17.442C21.3901 17.5995 21.2232 17.6033 21.1283 17.6033V17.3306ZM21.6367 17.9644C21.5911 17.9605 21.5646 17.9413 21.538 17.9106L21.3066 17.6302C21.3635 17.6187 21.5077 17.5918 21.5077 17.442C21.5077 17.273 21.3218 17.2461 21.2232 17.2461H20.9121V17.2653C20.9918 17.273 21.0069 17.2845 21.0069 17.3652V17.8453C21.0069 17.9298 21.0032 17.949 20.9121 17.9567V17.9797H21.2232V17.9567C21.1321 17.9529 21.1208 17.9298 21.1208 17.8568V17.6379L21.1814 17.634L21.447 17.9759H21.6291V17.9644H21.6367Z" fill="#101312"/>
<path d="M22.3912 17.2691C22.3077 17.2768 22.2887 17.296 22.2887 17.4113V17.7032C22.2887 17.7915 22.2887 17.999 21.9966 17.999C21.7197 17.999 21.7197 17.7839 21.7197 17.7186V17.3729C21.7197 17.2922 21.7046 17.2768 21.6211 17.273V17.2461H21.936V17.2653C21.8487 17.273 21.8335 17.2883 21.8335 17.3652V17.7186C21.8335 17.7915 21.8335 17.9452 22.0308 17.9452C22.118 17.9452 22.1825 17.9106 22.2129 17.8568C22.2281 17.8338 22.2394 17.7954 22.2394 17.7032V17.4036C22.2394 17.2845 22.2129 17.2653 22.1332 17.2615V17.2461H22.3912V17.2691Z" fill="#101312"/>
<path d="M22.9389 17.4686H22.9124C22.8934 17.3764 22.8213 17.2766 22.7037 17.2766C22.6506 17.2766 22.5899 17.3111 22.5899 17.3803C22.5899 17.5454 22.9655 17.5685 22.9655 17.7951C22.9655 17.8873 22.8896 17.9949 22.7303 17.9949C22.6468 17.9949 22.5899 17.9564 22.5558 17.9564L22.5216 17.991H22.4951L22.4609 17.7567H22.4875C22.5103 17.8105 22.5672 17.9526 22.7189 17.9526C22.8099 17.9526 22.8517 17.8911 22.8517 17.8297C22.8517 17.7682 22.8327 17.7298 22.6696 17.6338C22.5672 17.5762 22.4951 17.5262 22.4951 17.4187C22.4951 17.2919 22.5975 17.2305 22.6999 17.2305C22.7644 17.2305 22.8289 17.2689 22.8555 17.2689C22.8858 17.2689 22.8934 17.242 22.8934 17.2305H22.9199L22.9389 17.4686Z" fill="#101312"/>
<path d="M23.5459 17.9837H23.2197V17.9606C23.3221 17.9568 23.3259 17.9299 23.3259 17.8492V17.2961H23.2652C23.1438 17.2961 23.1097 17.3153 23.0869 17.4382H23.0604L23.068 17.25H23.7015L23.7091 17.4382H23.6825C23.6597 17.3153 23.6256 17.2961 23.5042 17.2961H23.4435V17.8607C23.4435 17.9376 23.4587 17.9568 23.5497 17.9606V17.9837H23.5459Z" fill="#101312"/>
<path d="M24.3413 17.9836H23.7344V17.9605C23.8065 17.9567 23.8292 17.9452 23.8292 17.8607V17.369C23.8292 17.2807 23.8027 17.273 23.7344 17.2691V17.2461H24.33L24.3337 17.4036H24.3072C24.2882 17.3037 24.2617 17.2883 24.1365 17.2883H23.9847C23.962 17.2883 23.9468 17.2883 23.9468 17.3268V17.5726H24.1213C24.2237 17.5726 24.2351 17.5457 24.2465 17.465H24.2731V17.7224H24.2465C24.2313 17.634 24.2161 17.6187 24.1213 17.6148L23.9468 17.611V17.8876C23.9468 17.9337 23.9468 17.9337 24.1137 17.9337C24.2541 17.9337 24.311 17.8991 24.3603 17.7877H24.3907L24.3413 17.9836Z" fill="#101312"/>
<path d="M24.6442 17.3344C24.6442 17.3114 24.6442 17.2922 24.6973 17.2922C24.8376 17.2922 24.9021 17.3229 24.9552 17.369C25.0311 17.4382 25.0577 17.5265 25.0577 17.6225C25.0577 17.9452 24.7807 17.9452 24.7087 17.9452C24.6556 17.9452 24.6442 17.9375 24.6442 17.8991V17.3344ZM24.4279 17.9836H24.7466C25.088 17.9836 25.1791 17.7646 25.1791 17.6187C25.1791 17.369 25.0008 17.2461 24.7314 17.2461H24.4279V17.2653C24.5152 17.273 24.5266 17.2845 24.5266 17.3652V17.8607C24.5266 17.9375 24.5114 17.9567 24.4279 17.9605V17.9836Z" fill="#101312"/>
<path d="M25.9539 17.0352C25.9539 16.9814 25.969 16.9814 26.0184 16.9814C26.0904 16.9814 26.3256 16.9852 26.3256 17.2118C26.3256 17.4577 26.1094 17.4577 26.0487 17.4577C26.0146 17.4577 25.9804 17.4538 25.9539 17.4538V17.0352ZM25.6504 16.9507C25.768 16.9622 25.787 16.9814 25.787 17.0966V17.7919C25.787 17.9071 25.787 17.9417 25.6504 17.9532V17.9839H26.1056V17.9532C25.9804 17.9493 25.9539 17.9263 25.9539 17.8072V17.5153C25.9918 17.5191 26.0222 17.5191 26.0639 17.5191C26.2308 17.5191 26.337 17.4922 26.4053 17.4231C26.4319 17.4001 26.5039 17.3348 26.5039 17.208C26.5039 17.0044 26.3029 16.9199 26.0791 16.9199H25.6504V16.9507Z" fill="#101312"/>
<path d="M26.7706 17.6954L26.8996 17.3919L27.0285 17.6954H26.7706ZM27.3206 17.9643C27.2713 17.9604 27.2524 17.9489 27.2182 17.8682L26.9375 17.2383H26.9147L26.6833 17.7837C26.6606 17.8337 26.6264 17.9143 26.5999 17.9412L26.543 17.9681V17.9911H26.7668V17.9681C26.744 17.9681 26.6871 17.9681 26.6871 17.922L26.6985 17.8797L26.7478 17.7491H27.0437L27.0892 17.8567L27.112 17.9258C27.112 17.9681 27.0741 17.9681 27.0323 17.9681V17.9911H27.3206V17.9643Z" fill="#101312"/>
<path d="M27.566 17.3306C27.566 17.296 27.5773 17.2922 27.6342 17.2922C27.6798 17.2922 27.8277 17.296 27.8277 17.442C27.8277 17.5995 27.657 17.6033 27.566 17.6033V17.3306ZM28.0743 17.9644C28.0288 17.9605 28.0022 17.9413 27.9756 17.9106L27.7442 17.6302C27.8011 17.6187 27.9491 17.5918 27.9491 17.442C27.9491 17.273 27.7632 17.2461 27.6646 17.2461H27.3535V17.2653C27.4332 17.273 27.4484 17.2845 27.4484 17.3652V17.8453C27.4484 17.9298 27.4446 17.949 27.3535 17.9567V17.9797H27.6646V17.9567C27.5735 17.9529 27.5622 17.9298 27.5622 17.8568V17.6379L27.6266 17.634L27.896 17.9759H28.0743V17.9644Z" fill="#101312"/>
<path d="M28.5244 17.9837H28.1982V17.9606C28.3006 17.9568 28.3044 17.9299 28.3044 17.8492V17.2961H28.2437C28.1223 17.2961 28.092 17.3153 28.0654 17.4382H28.0389L28.0465 17.25H28.68L28.6876 17.4382H28.661C28.6383 17.3153 28.6041 17.2961 28.4827 17.2961H28.422V17.8607C28.422 17.9376 28.4372 17.9568 28.532 17.9606V17.9837H28.5244Z" fill="#101312"/>
<path d="M29.4984 17.2691C29.4263 17.2768 29.3922 17.2807 29.3922 17.4113V17.9951H29.3732L28.88 17.3882V17.8184C28.88 17.9337 28.9028 17.9567 28.9862 17.9605V17.9836H28.7207V17.9605C28.808 17.9529 28.8307 17.9375 28.8307 17.8184V17.3268C28.7852 17.273 28.7662 17.2653 28.7207 17.2653V17.2461H28.9142L29.3428 17.78H29.3466V17.4074C29.3466 17.2807 29.3163 17.273 29.2404 17.2653V17.2461H29.5022V17.2691H29.4984Z" fill="#101312"/>
<path d="M30.1343 17.9836H29.5273V17.9605C29.5994 17.9567 29.626 17.9452 29.626 17.8607V17.369C29.626 17.2807 29.5994 17.273 29.5273 17.2691V17.2461H30.1229L30.1267 17.4036H30.1002C30.085 17.3037 30.0546 17.2883 29.9295 17.2883H29.7777C29.755 17.2883 29.7398 17.2883 29.7398 17.3268V17.5726H29.9143C30.0129 17.5726 30.0243 17.5457 30.0395 17.465H30.066V17.7224H30.0395C30.0243 17.634 30.0091 17.6187 29.9143 17.6148L29.7398 17.611V17.8876C29.7398 17.9337 29.7398 17.9337 29.9067 17.9337C30.0471 17.9337 30.104 17.8991 30.1533 17.7877H30.1836L30.1343 17.9836Z" fill="#101312"/>
<path d="M30.431 17.3306C30.431 17.296 30.4424 17.2922 30.4993 17.2922C30.5448 17.2922 30.6927 17.296 30.6927 17.442C30.6927 17.5995 30.5258 17.6033 30.431 17.6033V17.3306ZM30.9393 17.9644C30.8938 17.9605 30.8672 17.9413 30.8445 17.9106L30.6131 17.6302C30.67 17.6187 30.8179 17.5918 30.8179 17.442C30.8179 17.273 30.632 17.2461 30.5334 17.2461H30.2185V17.2653C30.2982 17.273 30.3134 17.2845 30.3134 17.3652V17.8453C30.3134 17.9298 30.3096 17.949 30.2185 17.9567V17.9797H30.5296V17.9567C30.4424 17.9529 30.4272 17.9298 30.4272 17.8568V17.6379L30.4879 17.634L30.7572 17.9759H30.9355V17.9644H30.9393Z" fill="#101312"/>
<path d="M4.99982 13.7344H5.45124C5.74334 13.7344 5.95957 13.7728 6.10372 13.8458C6.24408 13.9187 6.36168 14.034 6.45273 14.1992C6.54377 14.3643 6.58929 14.5525 6.58929 14.7715C6.58929 14.9251 6.56274 15.0711 6.51342 15.2017C6.46411 15.3323 6.39203 15.4398 6.30099 15.5243C6.20994 15.6088 6.11131 15.6703 6.00889 15.7049C5.90267 15.7394 5.72058 15.7548 5.45883 15.7548H4.99982V13.7344ZM5.38296 14.1108V15.3745H5.56125C5.73575 15.3745 5.86094 15.3553 5.9406 15.3169C6.02027 15.2785 6.08476 15.2094 6.13407 15.1133C6.18339 15.0173 6.20615 14.9021 6.20615 14.7638C6.20615 14.5487 6.14925 14.3835 6.02785 14.2683C5.92164 14.1646 5.74714 14.1108 5.50815 14.1108H5.38296Z" fill="#101312"/>
<path d="M6.91992 14.2617H7.29548V14.98C7.29548 15.1221 7.30307 15.2182 7.32203 15.2719C7.341 15.3257 7.37135 15.368 7.41308 15.3987C7.4586 15.4294 7.50791 15.4448 7.5724 15.4448C7.6331 15.4448 7.69 15.4294 7.73173 15.3987C7.77725 15.368 7.8076 15.3257 7.83036 15.2681C7.84553 15.2258 7.85312 15.1337 7.85312 14.9915V14.2617H8.22868V14.8917C8.22868 15.1529 8.20592 15.3296 8.16798 15.4256C8.11867 15.5408 8.0428 15.633 7.94417 15.6945C7.84553 15.7559 7.72035 15.7866 7.5724 15.7866C7.40928 15.7866 7.27651 15.7521 7.17409 15.6791C7.07166 15.6061 7.00338 15.5024 6.96165 15.3718C6.9313 15.2835 6.91992 15.1183 6.91992 14.8801V14.2617Z" fill="#101312"/>
<path d="M8.64464 13.7129H9.0164V14.2622H9.23642V14.5848H9.0164V15.7525H8.64464V14.5848H8.45117V14.2622H8.64464V13.7129Z" fill="#101312"/>
<path d="M10.8902 14.5606L10.5792 14.7296C10.5223 14.6682 10.4653 14.6259 10.4084 14.6029C10.3515 14.5798 10.2833 14.5683 10.2074 14.5683C10.067 14.5683 9.95702 14.6105 9.86977 14.695C9.78252 14.7796 9.74079 14.8833 9.74079 15.0139C9.74079 15.1406 9.78252 15.2443 9.86598 15.325C9.94943 15.4057 10.0557 15.4441 10.1922 15.4441C10.3591 15.4441 10.4881 15.3865 10.5829 15.2712L10.875 15.4748C10.7157 15.6822 10.4919 15.7859 10.1998 15.7859C9.93805 15.7859 9.7332 15.7091 9.58526 15.5516C9.43731 15.398 9.36523 15.2136 9.36523 15.0062C9.36523 14.8641 9.39938 14.7296 9.47525 14.6067C9.54732 14.4876 9.64595 14.3916 9.77493 14.3225C9.90391 14.2533 10.0481 14.2188 10.2074 14.2188C10.3553 14.2188 10.4881 14.2495 10.6057 14.3071C10.7195 14.3686 10.8181 14.4531 10.8902 14.5606Z" fill="#101312"/>
<path d="M11.2284 13.6895H11.6039V14.4116C11.676 14.3501 11.7481 14.3002 11.824 14.2695C11.896 14.2387 11.9719 14.2234 12.0478 14.2234C12.1957 14.2234 12.3171 14.2733 12.4195 14.377C12.5068 14.4654 12.5485 14.596 12.5485 14.7688V15.7521H12.1805V15.0991C12.1805 14.9263 12.173 14.8111 12.154 14.7496C12.1388 14.6881 12.1085 14.6421 12.0705 14.6152C12.0288 14.5844 11.9833 14.5691 11.9226 14.5691C11.8467 14.5691 11.7822 14.596 11.7291 14.6459C11.676 14.6958 11.6381 14.765 11.6153 14.8533C11.6039 14.8994 11.6001 14.9993 11.6001 15.1606V15.7598H11.2246V13.6895H11.2284Z" fill="#101312"/>
<path d="M13.6532 14.8379H12.959V15.1836H13.6532V14.8379Z" fill="#101312"/>
<path d="M14.123 15.751V13.7344H14.4379C14.62 13.7344 14.7566 13.7459 14.84 13.7689C14.9614 13.7997 15.0562 13.8573 15.1283 13.9456C15.2004 14.034 15.2345 14.1339 15.2345 14.2529C15.2345 14.3297 15.2194 14.3989 15.1852 14.4642C15.1549 14.5256 15.1018 14.5833 15.0259 14.6409C15.1473 14.6985 15.2345 14.7715 15.2914 14.856C15.3483 14.9405 15.3749 15.0442 15.3749 15.1633C15.3749 15.2747 15.3446 15.3784 15.2877 15.4706C15.227 15.5627 15.1549 15.6357 15.0638 15.678C14.9728 15.7241 14.8438 15.7471 14.6807 15.7471H14.123V15.751ZM14.5062 14.0993V14.5256H14.5896C14.6807 14.5256 14.7528 14.5064 14.7983 14.468C14.8438 14.4296 14.8666 14.372 14.8666 14.3067C14.8666 14.2452 14.8438 14.1915 14.8021 14.1569C14.7604 14.1185 14.6959 14.0993 14.6048 14.0993H14.5062ZM14.5062 14.8713V15.3861H14.601C14.7604 15.3861 14.8666 15.3669 14.9235 15.3246C14.9766 15.2862 15.0069 15.2286 15.0069 15.1517C15.0069 15.0672 14.9728 14.9981 14.9083 14.9482C14.8438 14.8982 14.7376 14.8713 14.5859 14.8713H14.5062Z" fill="#101312"/>
<path d="M16.8012 14.2611H17.1768V15.7515H16.8012V15.594C16.7291 15.6631 16.6533 15.7131 16.5812 15.7438C16.5091 15.7745 16.4294 15.7899 16.3422 15.7899C16.1525 15.7899 15.9818 15.7131 15.8415 15.5671C15.7011 15.4173 15.6328 15.2329 15.6328 15.0102C15.6328 14.7797 15.7011 14.5915 15.8339 14.4455C15.9704 14.2995 16.1336 14.2266 16.327 14.2266C16.4181 14.2266 16.4977 14.2419 16.5774 14.2765C16.6533 14.3111 16.7253 14.361 16.7936 14.4263V14.2611H16.8012ZM16.4105 14.5684C16.2967 14.5684 16.198 14.6107 16.1222 14.6913C16.0463 14.772 16.0046 14.8796 16.0046 15.0063C16.0046 15.1369 16.0425 15.2406 16.1222 15.3251C16.198 15.4096 16.2967 15.448 16.4105 15.448C16.5281 15.448 16.6229 15.4058 16.7026 15.3251C16.7784 15.2445 16.8202 15.1369 16.8202 15.0025C16.8202 14.8719 16.7822 14.7682 16.7026 14.6875C16.6229 14.6068 16.5243 14.5684 16.4105 14.5684Z" fill="#101312"/>
<path d="M17.5508 14.2611H17.9225V14.4147C18.0098 14.3417 18.0857 14.2918 18.1539 14.2649C18.2222 14.238 18.2943 14.2227 18.3664 14.2227C18.5143 14.2227 18.6395 14.2764 18.7419 14.3763C18.8292 14.4646 18.8709 14.5952 18.8709 14.7643V15.7476H18.4992V15.0946C18.4992 14.9179 18.4916 14.7988 18.4726 14.7412C18.4574 14.6836 18.4309 14.6375 18.3891 14.6068C18.3512 14.576 18.3019 14.5607 18.245 14.5607C18.1691 14.5607 18.1084 14.5876 18.0515 14.6375C17.9984 14.6913 17.9605 14.7566 17.9415 14.8488C17.9301 14.8949 17.9225 14.9947 17.9225 15.1522V15.7476H17.5508V14.2611Z" fill="#101312"/>
<path d="M20.3306 14.2611H20.7024V15.5363C20.7024 15.786 20.6531 15.9742 20.5506 16.0933C20.4141 16.2546 20.2092 16.3353 19.9361 16.3353C19.7919 16.3353 19.6705 16.3199 19.5681 16.2815C19.4695 16.2431 19.386 16.1893 19.3178 16.1202C19.2495 16.051 19.2002 15.9627 19.166 15.8628H19.5757C19.6136 15.9051 19.6592 15.9396 19.7161 15.9588C19.773 15.9819 19.8413 15.9934 19.9209 15.9934C20.0233 15.9934 20.103 15.978 20.1637 15.9473C20.2244 15.9166 20.2661 15.8743 20.2927 15.8244C20.3154 15.7745 20.3306 15.69 20.3306 15.567C20.2623 15.6323 20.1978 15.6823 20.122 15.7092C20.0499 15.7361 19.9702 15.7514 19.8792 15.7514C19.6819 15.7514 19.5112 15.6784 19.3747 15.5363C19.2381 15.3942 19.1698 15.2098 19.1698 14.987C19.1698 14.7527 19.2419 14.5607 19.3898 14.4186C19.5226 14.288 19.6781 14.2227 19.864 14.2227C19.9475 14.2227 20.0271 14.238 20.1068 14.2688C20.1827 14.2995 20.2585 14.3533 20.3344 14.4262V14.2611H20.3306ZM19.9437 14.5722C19.8261 14.5722 19.7312 14.6106 19.6554 14.6913C19.5795 14.7719 19.5416 14.868 19.5416 14.987C19.5416 15.11 19.5795 15.2137 19.6592 15.2905C19.735 15.3712 19.8337 15.4096 19.9513 15.4096C20.0651 15.4096 20.1599 15.3712 20.2358 15.2943C20.3117 15.2175 20.3458 15.1176 20.3458 14.9909C20.3458 14.868 20.3079 14.7681 20.232 14.6913C20.1599 14.6106 20.0613 14.5722 19.9437 14.5722Z" fill="#101312"/>
<path d="M21.4144 13.6895H21.0389V15.7521H21.4144V13.6895Z" fill="#101312"/>
<path d="M22.8443 14.2611H23.2198V15.7515H22.8443V15.594C22.7722 15.6631 22.6963 15.7131 22.6281 15.7438C22.5522 15.7745 22.4725 15.7899 22.3891 15.7899C22.1994 15.7899 22.0325 15.7131 21.8921 15.5671C21.7518 15.4173 21.6797 15.2329 21.6797 15.0102C21.6797 14.7797 21.748 14.5915 21.8845 14.4455C22.0211 14.2995 22.1842 14.2266 22.3777 14.2266C22.4649 14.2266 22.5484 14.2419 22.6281 14.2765C22.7039 14.3111 22.7798 14.361 22.8443 14.4263V14.2611ZM22.4536 14.5684C22.3398 14.5684 22.2411 14.6107 22.1653 14.6913C22.0894 14.772 22.0514 14.8796 22.0514 15.0063C22.0514 15.1369 22.0894 15.2406 22.169 15.3251C22.2449 15.4096 22.3435 15.448 22.4574 15.448C22.575 15.448 22.6736 15.4058 22.7495 15.3251C22.8291 15.2445 22.8671 15.1369 22.8671 15.0025C22.8671 14.8719 22.8291 14.7682 22.7495 14.6875C22.6698 14.6068 22.5712 14.5684 22.4536 14.5684Z" fill="#101312"/>
<path d="M24.4199 15.751V13.7344H24.7348C24.9207 13.7344 25.0534 13.7459 25.1369 13.7689C25.2545 13.7997 25.3531 13.8573 25.4252 13.9456C25.4973 14.034 25.5314 14.1339 25.5314 14.2529C25.5314 14.3297 25.5162 14.3989 25.4821 14.4642C25.4518 14.5256 25.3948 14.5833 25.3228 14.6409C25.4442 14.6985 25.5314 14.7715 25.5883 14.856C25.6452 14.9405 25.6718 15.0442 25.6718 15.1633C25.6718 15.2747 25.6414 15.3784 25.5845 15.4706C25.5238 15.5627 25.4518 15.6357 25.3569 15.678C25.2659 15.7241 25.1369 15.7471 24.9776 15.7471H24.4199V15.751ZM24.8031 14.0993V14.5256H24.8865C24.9814 14.5256 25.0496 14.5064 25.0952 14.468C25.1407 14.4296 25.1634 14.372 25.1634 14.3067C25.1634 14.2452 25.1407 14.1915 25.099 14.1569C25.0572 14.1185 24.9889 14.0993 24.9017 14.0993H24.8031ZM24.8031 14.8713V15.3861H24.8979C25.0572 15.3861 25.1634 15.3669 25.2166 15.3246C25.2735 15.2862 25.3 15.2286 25.3 15.1517C25.3 15.0672 25.2659 14.9981 25.2052 14.9482C25.1407 14.8982 25.0307 14.8713 24.8789 14.8713H24.8031Z" fill="#101312"/>
<path d="M27.1 14.2611H27.4718V15.7515H27.1V15.594C27.028 15.6631 26.9521 15.7131 26.88 15.7438C26.8079 15.7745 26.7283 15.7899 26.641 15.7899C26.4476 15.7899 26.2844 15.7131 26.1403 15.5671C25.9999 15.4173 25.9316 15.2329 25.9316 15.0102C25.9316 14.7797 25.9999 14.5915 26.1365 14.4455C26.2731 14.2995 26.4362 14.2266 26.6296 14.2266C26.7169 14.2266 26.8004 14.2419 26.88 14.2765C26.9597 14.3111 27.028 14.361 27.0962 14.4263V14.2611H27.1ZM26.7055 14.5684C26.5879 14.5684 26.4931 14.6107 26.4172 14.6913C26.3413 14.772 26.3034 14.8796 26.3034 15.0063C26.3034 15.1369 26.3413 15.2406 26.4172 15.3251C26.4969 15.4096 26.5917 15.448 26.7055 15.448C26.8231 15.448 26.9179 15.4058 26.9976 15.3251C27.0735 15.2445 27.1152 15.1369 27.1152 15.0025C27.1152 14.8719 27.0735 14.7682 26.9976 14.6875C26.9217 14.6068 26.8269 14.5684 26.7055 14.5684Z" fill="#101312"/>
<path d="M27.8516 14.2611H28.2271V14.4147C28.3106 14.3417 28.3864 14.2918 28.4585 14.2649C28.5268 14.238 28.5951 14.2227 28.6672 14.2227C28.8151 14.2227 28.9403 14.2764 29.0427 14.3763C29.1262 14.4646 29.1717 14.5952 29.1717 14.7643V15.7476H28.7961V15.0946C28.7961 14.9179 28.7886 14.7988 28.7734 14.7412C28.7544 14.6836 28.7317 14.6375 28.6899 14.6068C28.652 14.576 28.6027 14.5607 28.5458 14.5607C28.4699 14.5607 28.4054 14.5876 28.3523 14.6375C28.2992 14.6913 28.2613 14.7566 28.2423 14.8488C28.2309 14.8949 28.2271 14.9947 28.2271 15.1522V15.7476H27.8516V14.2611Z" fill="#101312"/>
<path d="M29.5352 13.6895H29.9069V14.8764L30.457 14.2618H30.9198L30.2863 14.9724L30.9994 15.7521H30.5366L29.9069 15.0684V15.7521H29.5352V13.6895Z" fill="#101312"/>
<defs>
<linearGradient id="paint0_linear_599_55408" x1="13.2642" y1="9.33086" x2="22.982" y2="9.33086" gradientUnits="userSpaceOnUse">
<stop stop-color="#5D5F62"/>
<stop offset="0.3764" stop-color="white"/>
<stop offset="0.7528" stop-color="#5D5F62"/>
<stop offset="1" stop-color="white"/>
</linearGradient>
<linearGradient id="paint1_linear_599_55408" x1="18.123" y1="5.9465" x2="18.123" y2="12.1119" gradientUnits="userSpaceOnUse">
<stop stop-color="#888C8E"/>
<stop offset="0.3764" stop-color="white"/>
<stop offset="0.7528" stop-color="#AEB2B4"/>
<stop offset="1" stop-color="white"/>
</linearGradient>
</defs>
</svg>
