<svg width="16" height="18" viewBox="0 0 16 18" fill="none" xmlns="http://www.w3.org/2000/svg">
<path d="M12.1667 8.16667V5.66667C12.1667 3.36548 10.3012 1.5 8.00001 1.5C5.69882 1.5 3.83334 3.36548 3.83334 5.66667V8.16667M5.33334 16.5H10.6667C12.0668 16.5 12.7669 16.5 13.3017 16.2275C13.7721 15.9878 14.1545 15.6054 14.3942 15.135C14.6667 14.6002 14.6667 13.9001 14.6667 12.5V12.1667C14.6667 10.7665 14.6667 10.0665 14.3942 9.53169C14.1545 9.06128 13.7721 8.67883 13.3017 8.43915C12.7669 8.16667 12.0668 8.16667 10.6667 8.16667H5.33334C3.93321 8.16667 3.23315 8.16667 2.69837 8.43915C2.22796 8.67883 1.84551 9.06128 1.60583 9.53169C1.33334 10.0665 1.33334 10.7665 1.33334 12.1667V12.5C1.33334 13.9001 1.33334 14.6002 1.60583 15.135C1.84551 15.6054 2.22796 15.9878 2.69837 16.2275C3.23315 16.5 3.93321 16.5 5.33334 16.5Z" stroke="white" stroke-width="1.66667" stroke-linecap="round" stroke-linejoin="round"/>
</svg>
