<svg width="56" height="56" viewBox="0 0 56 56" fill="none" xmlns="http://www.w3.org/2000/svg">
<g clip-path="url(#clip0_587_12458)">
<path d="M0 10.7059C0 4.79319 4.79319 0 10.7059 0H45.2941C51.2068 0 56 4.79319 56 10.7059V45.2941C56 51.2068 51.2068 56 45.2941 56H10.7059C4.79319 56 0 51.2068 0 45.2941V10.7059Z" fill="url(#paint0_linear_587_12458)"/>
<path d="M56 30.8816L30.4706 10.7051L44.8823 43.6463H56V30.8816Z" fill="#6E48C5"/>
<path d="M29.647 44.4707H13.1765L23.8823 56.0001H42.8235L29.647 44.4707Z" fill="#6E48C5"/>
<path d="M29.6471 44.5756H13.1765C15.047 37.7614 22.4625 30.2124 26.4708 26.5381C21.3268 22.0621 17.118 16.7176 13.9781 10.7051H30.4488C33.5886 16.7176 37.7974 22.0621 42.9415 26.5381C46.5294 29.66 56 38.2933 56 38.2933V45.2933C56 51.206 51.2068 55.9992 45.2941 55.9992H42.4117C42.4117 55.9992 31.6001 46.5286 29.6471 44.5756Z" fill="url(#paint1_linear_587_12458)"/>
<path d="M29.6471 44.5756H13.1765C15.047 37.7614 22.4625 30.2124 26.4708 26.5381C21.3268 22.0621 17.118 16.7176 13.9781 10.7051H30.4488C33.5886 16.7176 37.7974 22.0621 42.9414 26.5381C38.9331 30.2124 31.5177 37.7614 29.6471 44.5756Z" fill="white"/>
</g>
<defs>
<linearGradient id="paint0_linear_587_12458" x1="17.6059" y1="31.6786" x2="62.2669" y2="28.0396" gradientUnits="userSpaceOnUse">
<stop stop-color="#7F56D9"/>
<stop offset="1" stop-color="#E3D6FF"/>
</linearGradient>
<linearGradient id="paint1_linear_587_12458" x1="57.2353" y1="56.8227" x2="32.1176" y2="32.9404" gradientUnits="userSpaceOnUse">
<stop stop-color="#7F57D9"/>
<stop offset="1" stop-color="#432E73"/>
</linearGradient>
<clipPath id="clip0_587_12458">
<rect width="56" height="56" rx="8" fill="white"/>
</clipPath>
</defs>
</svg>
