<svg width="20" height="12" viewBox="0 0 20 12" fill="none" xmlns="http://www.w3.org/2000/svg">
<path fill-rule="evenodd" clip-rule="evenodd" d="M14.1719 1.55648L11.354 4.37448L11.5485 5.95606L12.0694 4.87029L13.6761 6.91631L15.923 0L8.43555 3.11297L10.4627 4.17364L14.1719 1.55648Z" fill="#8C3494"/>
<path d="M11.7239 6.50195C11.7239 6.50195 9.33899 6.50195 8.7553 6.50195C6.49589 6.84714 6.2574 10.1358 8.7302 10.5814H11.7176V7.61911C12.7156 7.65049 12.9227 8.89317 12.1884 9.35132C12.339 9.52706 12.9289 10.1672 12.9289 10.1672C14.4917 8.81158 13.6005 6.60865 11.7239 6.50195ZM10.6381 9.4643C10.6381 9.4643 9.10677 9.4643 8.98125 9.4643C7.95823 9.52706 7.61932 7.8325 8.88083 7.61283C9.25112 7.61283 10.6381 7.61283 10.6381 7.61283V9.4643Z" fill="#8C3494"/>
<path fill-rule="evenodd" clip-rule="evenodd" d="M17.9242 7.98412C17.4284 7.98412 16.8384 7.98412 16.8384 7.98412L16.3677 9.0699C16.3677 9.0699 17.6292 9.0699 17.7547 9.0699C18.0309 9.05734 18.0434 9.46529 17.7547 9.4904C17.397 9.4904 15.3573 9.4904 15.3573 9.4904V7.61383H19.0414V6.50295C19.0414 6.50295 18.5267 6.50295 18.4953 6.50295C18.3322 4.20588 15.5832 4.13685 14.8614 5.39208C15.0058 5.51132 15.6773 6.10756 15.6773 6.10756C16.0916 5.46111 17.2401 5.49249 17.4096 6.50295H14.2715V10.5824H17.805C18.6083 10.5699 18.9786 9.97994 19.0665 9.47157C19.1104 8.64939 18.6146 8.10337 17.9242 7.98412Z" fill="#8C3494"/>
<path fill-rule="evenodd" clip-rule="evenodd" d="M7.34948 6.50195H5.91852C5.46036 7.06053 4.66957 9.30739 6.23861 11.002C6.23861 11.002 6.91643 10.4183 7.05451 10.3116C6.57124 9.83459 5.7679 7.92036 7.34948 6.50195Z" fill="#8C3494"/>
<path fill-rule="evenodd" clip-rule="evenodd" d="M3.70318 11.0342C3.70318 11.53 3.30151 11.9317 2.80569 11.9317C2.30988 11.9317 1.9082 11.53 1.9082 11.0342C1.9082 10.5384 2.30988 10.1367 2.80569 10.1367C3.29523 10.1367 3.70318 10.5384 3.70318 11.0342Z" fill="#8C3494"/>
<path fill-rule="evenodd" clip-rule="evenodd" d="M1.78851 6.50195C-0.470905 6.84714 -0.709399 10.1358 1.7634 10.5814H1.78223C1.95796 10.1923 2.34708 9.92245 2.80524 9.92245C3.25713 9.92245 3.65252 10.1923 3.82826 10.5814H4.75713C4.75713 10.4434 4.75713 6.50195 4.75713 6.50195C4.75713 6.50195 2.36591 6.50195 1.78851 6.50195ZM3.66508 9.4643C3.66508 9.4643 2.1337 9.4643 2.00817 9.4643C0.985161 9.52706 0.646249 7.8325 1.90775 7.61283C2.27805 7.61283 3.66508 7.61283 3.66508 7.61283V9.4643Z" fill="#8C3494"/>
<path fill-rule="evenodd" clip-rule="evenodd" d="M2.85072 5.53572C3.21474 5.47296 3.39675 4.7261 2.80051 4.55664C2.73147 4.55664 1.83398 4.55664 1.83398 4.55664V5.97505H2.22938V5.52944L2.67499 5.97505H3.29633L2.85072 5.53572ZM2.80679 5.03363C2.80679 5.08384 2.76285 5.12777 2.71265 5.12777H2.24193V4.93321H2.71265C2.76285 4.93321 2.80679 4.97714 2.80679 5.02735V5.03363Z" fill="#8C3494"/>
<path fill-rule="evenodd" clip-rule="evenodd" d="M3.98549 4.53711C3.59009 4.53711 3.26373 4.85719 3.26373 5.25887C3.26373 5.65426 3.58382 5.98062 3.98549 5.98062C4.38089 5.98062 4.70725 5.66054 4.70725 5.25887C4.70725 4.85719 4.38089 4.53711 3.98549 4.53711ZM3.98549 5.57267C3.80976 5.57267 3.67168 5.42832 3.67168 5.25887C3.67168 5.08313 3.81603 4.94506 3.98549 4.94506C4.16122 4.94506 4.2993 5.08941 4.2993 5.25887C4.2993 5.42832 4.16122 5.57267 3.98549 5.57267Z" fill="#8C3494"/>
<path fill-rule="evenodd" clip-rule="evenodd" d="M8.07277 4.94548H8.71922V4.53125H8.17319C7.74014 4.53125 7.38867 4.85761 7.38867 5.25301C7.38867 5.6484 7.74014 5.97476 8.17319 5.97476H8.71922V5.56054H8.07277C7.97863 5.56054 7.89076 5.51661 7.84055 5.44757H8.71922V5.071H7.84055C7.89076 4.98941 7.97863 4.94548 8.07277 4.94548Z" fill="#8C3494"/>
<path fill-rule="evenodd" clip-rule="evenodd" d="M5.49916 5.55426C5.33598 5.55426 5.20418 5.42246 5.20418 5.25928V5.24045C5.20418 5.07728 5.33598 4.94548 5.49916 4.94548H6.11422V4.53125H5.56192C5.12887 4.53125 4.7774 4.85761 4.7774 5.25301C4.7774 5.6484 5.12887 5.97476 5.56192 5.97476H6.11422V5.56054H5.49916V5.55426Z" fill="#8C3494"/>
<path fill-rule="evenodd" clip-rule="evenodd" d="M10.2175 4.55664H8.82422V4.92693H9.33259V5.94995H9.70916V4.92693H10.2175V4.55664Z" fill="#8C3494"/>
<path d="M6.8991 5.24702L7.58948 4.55664H7.0309L6.64805 4.94576V4.55664H6.27148V5.94995H6.64805V5.54827L7.04345 5.94995H7.59575L6.8991 5.24702Z" fill="#8C3494"/>
<path d="M12.5147 11.2645C12.4519 11.277 12.4017 11.3147 12.3515 11.3837C12.3076 11.4465 12.2825 11.5093 12.2825 11.572C12.2825 11.6097 12.2888 11.6473 12.3076 11.685C12.3264 11.7289 12.3578 11.754 12.3892 11.754C12.408 11.754 12.4268 11.7477 12.4582 11.7226L12.4959 11.8293C12.4582 11.8482 12.4268 11.8607 12.3954 11.8607C12.3515 11.8607 12.3076 11.8419 12.2636 11.8105C12.2385 11.7917 12.2197 11.754 12.1946 11.6975C12.1821 11.6724 12.1758 11.6285 12.1758 11.5783V11.5406C12.1758 11.459 12.2197 11.3586 12.3076 11.2582C12.3264 11.2394 12.3578 11.208 12.4017 11.1641H12.5398V11.2645C12.5398 11.2645 12.5272 11.2645 12.5147 11.2645Z" fill="#8C3494"/>
<path d="M13.1427 11.2656V11.8556H13.0234V11.7802C13.0234 11.7551 13.0046 11.7238 12.9607 11.6798C12.9293 11.6484 12.8979 11.6233 12.8665 11.5982C12.8289 11.5731 12.7912 11.5606 12.7473 11.5606C12.7033 11.5606 12.672 11.5794 12.6531 11.6171C12.6531 11.6233 12.6469 11.6233 12.6469 11.6359C12.6469 11.6484 12.6531 11.6673 12.672 11.6798C12.6845 11.6924 12.7033 11.6987 12.7159 11.6987C12.7284 11.6987 12.7598 11.6924 12.8038 11.6735L12.8414 11.7802C12.7912 11.8053 12.7473 11.8179 12.7096 11.8179C12.672 11.8179 12.6343 11.8053 12.6029 11.7865C12.5715 11.7677 12.5464 11.7363 12.5339 11.6987C12.5276 11.6861 12.5213 11.6673 12.5213 11.6422C12.5213 11.5731 12.5464 11.5229 12.6029 11.4915C12.6406 11.4664 12.6845 11.4539 12.7284 11.4539C12.7347 11.4539 12.7347 11.4539 12.741 11.4539C12.741 11.4351 12.7284 11.41 12.7096 11.3848C12.6908 11.3597 12.6657 11.3472 12.6469 11.3472H12.5151V11.2782H12.4648V11.1777H13.218V11.2782H13.1427V11.2656ZM13.0234 11.2656H12.7473C12.8226 11.3158 12.8665 11.3848 12.8665 11.4664C12.9167 11.4853 12.9669 11.5229 13.0234 11.5857V11.2656Z" fill="#8C3494"/>
<path d="M13.3673 11.2645V11.8544H13.248V11.2645H13.1602V11.1641H13.4426V11.2645H13.3673Z" fill="#8C3494"/>
<path d="M13.9334 11.2645H13.4062V11.1641H14.1406V11.2645H14.059V11.8544H13.9523C13.9397 11.8231 13.8895 11.7791 13.8016 11.7164C13.764 11.6913 13.7138 11.6662 13.6447 11.6411C13.5757 11.6159 13.5192 11.6034 13.4753 11.6034L13.4439 11.4841C13.469 11.4653 13.5443 11.4214 13.6698 11.3712C13.7263 11.3461 13.8142 11.3084 13.9334 11.2645ZM13.9397 11.39C13.9209 11.3963 13.8958 11.4088 13.8707 11.4151C13.833 11.4339 13.764 11.459 13.6698 11.503L13.6447 11.5155C13.7389 11.5469 13.8268 11.5971 13.9083 11.6599C13.9209 11.6662 13.9272 11.6724 13.9334 11.6787V11.39H13.9397Z" fill="#8C3494"/>
<path d="M14.2852 11.2645V11.8544H14.166V11.2645H14.0781V11.1641H14.3606V11.2645H14.2852Z" fill="#8C3494"/>
<path d="M14.3222 11.2654V11.165H14.6674C14.6674 11.1587 14.6674 11.1587 14.6674 11.1587C14.6674 11.1022 14.6423 11.0708 14.5921 11.052C14.5858 11.052 14.5795 11.052 14.567 11.052C14.5544 11.052 14.5419 11.052 14.523 11.0583C14.4979 11.0646 14.4854 11.0708 14.4791 11.0708C14.4603 11.0771 14.4415 11.0834 14.4289 11.0897C14.4101 11.1022 14.385 11.1148 14.3599 11.1273L14.3222 11.0395C14.3661 11.0081 14.4289 10.983 14.4979 10.9579C14.5293 10.9516 14.5607 10.9453 14.5858 10.9453C14.6172 10.9453 14.6486 10.9579 14.6862 10.9767C14.749 11.0144 14.7804 11.0771 14.7804 11.1713H14.8494V11.2717H14.3222V11.2654ZM14.7302 11.9495C14.6799 11.9056 14.6297 11.8679 14.5795 11.8302C14.5544 11.8114 14.5105 11.7926 14.454 11.7738C14.4038 11.7549 14.3787 11.7487 14.3724 11.7487V11.6106C14.385 11.6106 14.3975 11.6106 14.4163 11.6106C14.4352 11.6106 14.454 11.6106 14.4603 11.6106C14.5105 11.6106 14.5544 11.6043 14.5921 11.5918C14.6548 11.5667 14.6862 11.5353 14.6862 11.4976C14.6862 11.4725 14.6737 11.4474 14.6486 11.4286C14.6235 11.416 14.6046 11.4035 14.5795 11.3909C14.5733 11.3846 14.567 11.3846 14.5607 11.3846C14.5481 11.3846 14.5293 11.3909 14.5168 11.3972C14.4979 11.4097 14.4854 11.416 14.4854 11.4286C14.4917 11.46 14.523 11.4725 14.5795 11.4662L14.5168 11.5667C14.4917 11.5667 14.4666 11.5604 14.4352 11.5415C14.385 11.5102 14.3599 11.4662 14.3599 11.4223C14.3599 11.3721 14.385 11.3407 14.4352 11.3156C14.4728 11.2968 14.523 11.2842 14.5733 11.2842C14.5984 11.2842 14.6172 11.2905 14.6297 11.2968C14.6486 11.3031 14.6611 11.3093 14.6799 11.3219C14.7615 11.3595 14.7992 11.4223 14.7992 11.5039C14.7992 11.5604 14.7741 11.6106 14.7239 11.6482C14.6862 11.6733 14.6297 11.6985 14.5607 11.711C14.5795 11.7236 14.6109 11.7361 14.6486 11.7612C14.7176 11.8114 14.7678 11.8554 14.8117 11.8993L14.7302 11.9495Z" fill="#8C3494"/>
<path d="M15.5531 11.2645V11.8544H15.4401V11.6222C15.4401 11.6034 15.4338 11.5783 15.415 11.5595C15.3962 11.5406 15.3774 11.5281 15.3585 11.5281C15.3397 11.5281 15.3209 11.5406 15.3083 11.5595C15.2895 11.5846 15.2832 11.6097 15.2832 11.6348H15.1577C15.1577 11.6034 15.1514 11.572 15.1326 11.5532C15.1138 11.5281 15.0949 11.5155 15.0761 11.5155C15.0573 11.5155 15.0384 11.5218 15.0259 11.5344C15.0071 11.5469 15.0008 11.5595 15.0008 11.5783L14.9945 11.6097V11.6222C14.9945 11.685 15.0322 11.7101 15.1075 11.7101C15.12 11.7101 15.1389 11.7101 15.1702 11.7038L15.1263 11.8231C15.1012 11.8231 15.0887 11.8293 15.0824 11.8293C15.0259 11.8293 14.9757 11.8105 14.9317 11.7666C14.9129 11.754 14.9004 11.7289 14.8878 11.6975C14.8753 11.6662 14.869 11.6411 14.869 11.6159C14.869 11.5532 14.8878 11.503 14.9255 11.459C14.9631 11.4214 15.0133 11.4026 15.0761 11.4026C15.1326 11.4026 15.1828 11.4277 15.2267 11.4841C15.2707 11.4277 15.3146 11.4026 15.3648 11.4026C15.3899 11.4026 15.4213 11.4151 15.4464 11.4402V11.2645H14.8125V11.1641H15.6284V11.2645H15.5531Z" fill="#8C3494"/>
<path d="M16.4373 11.2645H15.9101V11.1641H16.6444V11.2645H16.5628V11.8544H16.4561C16.4436 11.8231 16.3934 11.7791 16.3055 11.7164C16.2678 11.6913 16.2176 11.6662 16.1486 11.6411C16.0796 11.6159 16.0231 11.6034 15.9791 11.6034L15.9478 11.4841C15.9729 11.4653 16.0482 11.4214 16.1737 11.3712C16.2302 11.3461 16.3118 11.3084 16.4373 11.2645ZM16.4436 11.39C16.4247 11.3963 16.3996 11.4088 16.3745 11.4151C16.3369 11.4339 16.2678 11.459 16.1737 11.503L16.1486 11.5155C16.2427 11.5469 16.3306 11.5971 16.4122 11.6599C16.4247 11.6662 16.431 11.6724 16.4373 11.6787V11.39H16.4436Z" fill="#8C3494"/>
<path d="M16.8322 11.2656C16.7946 11.3158 16.7758 11.3597 16.7758 11.3911C16.7758 11.4037 16.7946 11.4664 16.8322 11.5794C16.8511 11.6359 16.8636 11.6798 16.8636 11.7175C16.8636 11.7865 16.826 11.8367 16.7507 11.8618C16.7255 11.8681 16.6879 11.8807 16.6251 11.8869L16.644 11.7865C16.713 11.774 16.7507 11.7489 16.7507 11.7112C16.7507 11.6798 16.7381 11.6296 16.7067 11.5669C16.6753 11.4978 16.6628 11.4539 16.6628 11.4225C16.6628 11.3848 16.6816 11.3346 16.713 11.2782H16.5938V11.1777H16.9201V11.2782H16.8322V11.2656Z" fill="#8C3494"/>
<path d="M17.0837 11.2645V11.8544H16.9645V11.2645H16.8829V11.1641H17.1653V11.2645H17.0837Z" fill="#8C3494"/>
<path d="M17.3598 11.5413C17.3033 11.5413 17.2594 11.5225 17.228 11.4911C17.1967 11.4535 17.1778 11.4095 17.1778 11.3593C17.1778 11.3091 17.1967 11.2652 17.228 11.2338C17.2594 11.2024 17.3033 11.1836 17.3536 11.1836C17.4226 11.1836 17.4728 11.2213 17.5042 11.2903C17.5167 11.3217 17.523 11.3468 17.523 11.3782C17.523 11.4284 17.5105 11.4723 17.4791 11.5037C17.454 11.5288 17.41 11.5413 17.3598 11.5413ZM17.4854 11.9179C17.3347 11.7924 17.2343 11.7171 17.1841 11.692V11.5288C17.3912 11.6731 17.523 11.7924 17.5858 11.8802V11.9995L17.4854 11.9179ZM17.3849 11.3028C17.3724 11.2966 17.3598 11.2903 17.3473 11.2903C17.3033 11.2966 17.2782 11.3217 17.2782 11.353C17.2782 11.3719 17.2845 11.3907 17.2971 11.4033C17.3096 11.4221 17.3285 11.4284 17.3473 11.4284H17.3661C17.3975 11.4158 17.4163 11.397 17.4163 11.3656C17.4163 11.3405 17.4038 11.3217 17.3849 11.3028Z" fill="#8C3494"/>
<path d="M18.3271 11.0955C18.189 11.0076 18.076 10.9637 17.9944 10.9637C17.894 10.9637 17.8187 10.9951 17.7685 11.0641C17.7497 11.0892 17.7434 11.1206 17.7434 11.1645H17.825V11.265H17.7434V11.8549H17.6241V11.265H17.5488V11.1645H17.6241C17.6241 11.0829 17.6555 11.0139 17.7057 10.9637C17.7559 10.9135 17.8313 10.8821 17.9191 10.8696C17.9254 10.8696 17.9442 10.8696 17.9693 10.8633H17.9944C18.0635 10.8633 18.1388 10.8758 18.2078 10.9072C18.2455 10.926 18.3082 10.9637 18.3961 11.0139L18.3271 11.0955Z" fill="#8C3494"/>
<path d="M18.2263 11.266C18.2765 11.2723 18.3267 11.2848 18.3769 11.3162C18.4522 11.3539 18.4899 11.4104 18.4899 11.4857C18.4899 11.5296 18.4773 11.561 18.4522 11.5924C18.4271 11.6238 18.3957 11.6426 18.3518 11.6489C18.3142 11.6551 18.2765 11.6614 18.2514 11.6551V11.5422C18.2639 11.5422 18.2765 11.5422 18.289 11.5422C18.3455 11.5422 18.3769 11.5233 18.3769 11.4794C18.3769 11.4292 18.3267 11.3978 18.2263 11.3853V11.856H18.1196C18.1008 11.8246 18.0882 11.7995 18.0694 11.7807C18.0631 11.7744 18.0506 11.7556 18.0254 11.7242C18.0192 11.7116 18.0066 11.6991 17.9815 11.6865C17.9627 11.6677 17.9501 11.6551 17.9376 11.6489C17.9313 11.6426 17.925 11.6363 17.9125 11.63C17.8623 11.6112 17.8183 11.6049 17.787 11.6049L17.7556 11.4857C17.7807 11.4669 17.8372 11.4292 17.9313 11.379C17.9376 11.3727 17.9627 11.3602 18.0129 11.3288C18.0317 11.3162 18.0568 11.3037 18.1008 11.2786V11.2723H17.7305V11.1719H18.5338V11.2723H18.2263V11.266ZM18.107 11.3978C18.0882 11.4104 18.0568 11.4292 18.0192 11.4543C18.0066 11.4606 18.0003 11.4669 17.9878 11.4794C17.9752 11.492 17.9627 11.5045 17.9501 11.5171C17.9627 11.5296 17.9815 11.5422 18.0129 11.5673C18.038 11.5987 18.0694 11.63 18.1133 11.674V11.3978H18.107Z" fill="#8C3494"/>
<path d="M18.7211 11.5413C18.6646 11.5413 18.6207 11.5225 18.5893 11.4911C18.5579 11.4535 18.5391 11.4095 18.5391 11.3593C18.5391 11.3091 18.5579 11.2652 18.5893 11.2338C18.6207 11.2024 18.6646 11.1836 18.7148 11.1836C18.7838 11.1836 18.834 11.2213 18.8654 11.2903C18.878 11.3217 18.8843 11.3468 18.8843 11.3782C18.8843 11.4284 18.8717 11.4723 18.8403 11.5037C18.8152 11.5288 18.7713 11.5413 18.7211 11.5413ZM18.8466 11.9179C18.696 11.7924 18.5955 11.7171 18.5453 11.692V11.5288C18.7525 11.6731 18.8843 11.7924 18.947 11.8802V11.9995L18.8466 11.9179ZM18.7399 11.3028C18.7273 11.2966 18.7148 11.2903 18.7022 11.2903C18.6583 11.2966 18.6332 11.3217 18.6332 11.353C18.6332 11.3719 18.6395 11.3907 18.652 11.4033C18.6646 11.4221 18.6834 11.4284 18.7022 11.4284H18.7211C18.7525 11.4158 18.7713 11.397 18.7713 11.3656C18.7776 11.3405 18.765 11.3217 18.7399 11.3028Z" fill="#8C3494"/>
<path d="M5.74414 11.8995L5.96381 11.9748L6.05167 11.8995L5.83201 11.8242L5.74414 11.8995Z" fill="#8C3494"/>
<path d="M5.81927 11.2978V11.166H4.09961V11.2978H4.38831V11.5928C4.38831 11.5928 4.60798 11.5928 4.63308 11.5928C4.63308 11.5928 4.70212 11.5677 4.72095 11.5363C4.72095 11.5802 4.72095 11.6367 4.72095 11.6556C4.72095 11.7058 4.68329 11.7497 4.63308 11.7497C4.58287 11.7497 4.28789 11.7497 4.26907 11.7497C4.25024 11.7497 4.22513 11.7371 4.22513 11.6556C4.22513 11.5677 4.22513 11.3794 4.22513 11.3794H4.09961C4.09961 11.3794 4.09961 11.7058 4.09961 11.7309C4.09961 11.7622 4.11844 11.8627 4.21258 11.8627C4.30672 11.8627 4.68957 11.8627 4.7084 11.8627C4.78371 11.8627 4.84019 11.7811 4.84647 11.7183C4.84647 11.574 4.84647 11.3794 4.84647 11.3794H4.72722C4.71467 11.4296 4.72095 11.4673 4.67074 11.4798C4.61425 11.4798 4.52639 11.4798 4.52639 11.4798V11.2978H4.94689V11.8627H5.09124V11.2978H5.19166V11.8627C5.19166 11.8627 5.63727 11.8627 5.67492 11.8627C5.7063 11.8627 5.81927 11.8313 5.81927 11.712C5.81927 11.5865 5.81927 11.3794 5.81927 11.3794H5.70003C5.70003 11.4108 5.69375 11.461 5.64354 11.461C5.58706 11.461 5.32346 11.461 5.32346 11.461V11.2978H5.81927ZM5.63099 11.574C5.64982 11.5802 5.6812 11.5426 5.7063 11.5175C5.7063 11.5489 5.7063 11.5991 5.7063 11.6556C5.7063 11.7058 5.66237 11.7497 5.63099 11.7497C5.59961 11.7497 5.32346 11.7497 5.32346 11.7497V11.574C5.32346 11.574 5.59961 11.574 5.63099 11.574Z" fill="#8C3494"/>
<path d="M6.26527 11.4551H5.97656V11.612H6.26527V11.4551Z" fill="#8C3494"/>
<path d="M6.42773 11.1664V11.2982H6.911V11.3735H6.42773C6.42773 11.3735 6.42773 11.6685 6.42773 11.6874C6.44029 11.7878 6.4905 11.8568 6.59091 11.8568C6.71016 11.8568 7.02397 11.8568 7.02397 11.8568V11.292H7.12439V11.8568H7.25619V11.1602H6.42773V11.1664ZM6.911 11.7689C6.911 11.7689 6.62857 11.7689 6.62229 11.7689C6.57836 11.7627 6.54698 11.7125 6.54698 11.6497C6.54698 11.5932 6.54698 11.4928 6.54698 11.4928H6.911V11.7689Z" fill="#8C3494"/>
<path d="M7.89062 11.2978H8.48686V11.3731C8.46175 11.3731 8.32996 11.3731 8.31113 11.3731C8.30485 11.4296 8.21698 11.461 8.19188 11.3731C8.09774 11.3731 7.89062 11.3731 7.89062 11.3731C7.89062 11.3731 7.89062 11.6744 7.89062 11.7058C7.89062 11.7371 7.8969 11.8438 7.98477 11.8564C8.06636 11.8564 8.22326 11.8564 8.22326 11.8564V11.7434C8.22326 11.7434 8.09146 11.7434 8.06008 11.7434C8.0287 11.7309 8.0036 11.712 8.0036 11.6681C8.0036 11.6116 8.0036 11.4924 8.0036 11.4924H8.16678V11.5928H8.31113V11.5175C8.29857 11.4798 8.46175 11.4861 8.47431 11.5175C8.47431 11.5677 8.47431 11.8627 8.47431 11.8627H8.60611V11.2978H8.69397V11.8627H8.82577V11.166H7.8969V11.2978H7.89062Z" fill="#8C3494"/>
<path d="M7.68058 11.2031C7.62409 11.2031 7.37305 11.2031 7.37305 11.2031C7.37305 11.2031 7.37305 11.3538 7.37305 11.3851C7.3856 11.4416 7.41698 11.5169 7.52367 11.5232C7.63037 11.5232 7.76844 11.5232 7.76844 11.5232V11.2973C7.76217 11.2596 7.73706 11.2094 7.68058 11.2031ZM7.58644 11.3977C7.52995 11.3977 7.48602 11.3789 7.48602 11.3538C7.48602 11.3286 7.52995 11.3098 7.58644 11.3098C7.64292 11.3098 7.68685 11.3286 7.68685 11.3538C7.68685 11.3789 7.64292 11.3977 7.58644 11.3977Z" fill="#8C3494"/>
<path d="M7.39453 11.5938V11.7067L7.7711 11.8636V11.7381L7.39453 11.5938Z" fill="#8C3494"/>
<path d="M10.8212 11.2031C10.7647 11.2031 10.5137 11.2031 10.5137 11.2031C10.5137 11.2031 10.5137 11.3538 10.5137 11.3851C10.5262 11.4416 10.5576 11.5169 10.6643 11.5232C10.771 11.5232 10.9091 11.5232 10.9091 11.5232V11.2973C10.9028 11.2596 10.8777 11.2094 10.8212 11.2031ZM10.7271 11.3977C10.6706 11.3977 10.6266 11.3789 10.6266 11.3538C10.6266 11.3286 10.6706 11.3098 10.7271 11.3098C10.7835 11.3098 10.8275 11.3286 10.8275 11.3538C10.8338 11.3789 10.7835 11.3977 10.7271 11.3977Z" fill="#8C3494"/>
<path d="M10.5312 11.5938V11.7067L10.9078 11.8636V11.7381L10.5312 11.5938Z" fill="#8C3494"/>
<path d="M11.6179 11.3731V11.2978H11.8564V11.166H11.0154V11.2978H11.4986V11.3731H11.0154C11.0154 11.3731 11.0154 11.6681 11.0154 11.6869C11.0279 11.7874 11.0781 11.8564 11.1786 11.8564C11.2978 11.8564 11.6116 11.8564 11.6116 11.8564V11.5112H11.7309C11.7497 11.5112 11.756 11.4987 11.7622 11.53C11.7622 11.5677 11.7622 11.5865 11.7622 11.5865C11.756 11.6179 11.7497 11.6367 11.7309 11.643C11.712 11.643 11.6869 11.643 11.6869 11.643V11.7622H11.7748C11.8062 11.756 11.8564 11.7246 11.8627 11.6869C11.8627 11.6242 11.8627 11.3731 11.8627 11.3731H11.6179ZM11.5049 11.7685C11.5049 11.7685 11.2225 11.7685 11.2162 11.7685C11.1723 11.7623 11.1409 11.712 11.1409 11.6493C11.1409 11.5928 11.1409 11.4924 11.1409 11.4924H11.5049V11.5112V11.7685Z" fill="#8C3494"/>
<path d="M9.21484 11.1664V11.2982H9.69811V11.3735H9.21484C9.21484 11.3735 9.21484 11.6685 9.21484 11.6874C9.2274 11.7878 9.2776 11.8568 9.37802 11.8568C9.49727 11.8568 9.81108 11.8568 9.81108 11.8568V11.292H9.9617L9.90522 11.4049V11.4802C9.90522 11.4802 9.98681 11.4802 10.0056 11.4802C10.0621 11.4865 10.081 11.5242 10.081 11.6183C10.081 11.6811 10.0684 11.7313 10.0182 11.7376C9.98681 11.7376 9.92405 11.7376 9.92405 11.7376V11.8568C9.92405 11.8568 9.99936 11.8568 10.0245 11.8568C10.0558 11.8568 10.1876 11.8694 10.2002 11.7376C10.2128 11.474 10.2253 11.4049 10.037 11.3861L10.0621 11.292H10.2692V11.8568H10.401V11.1602H9.21484V11.1664ZM9.69183 11.7689C9.69183 11.7689 9.4094 11.7689 9.40313 11.7689C9.3592 11.7627 9.32781 11.7125 9.32781 11.6497C9.32781 11.5932 9.32781 11.4928 9.32781 11.4928H9.69183V11.7689Z" fill="#8C3494"/>
</svg>
