<svg width="35" height="24" viewBox="0 0 35 24" fill="none" xmlns="http://www.w3.org/2000/svg">
<rect x="0.5" y="0.5" width="34" height="23" rx="3.5" fill="white" stroke="#D9D9D9"/>
<path d="M17.534 16.0554C17.1437 16.3035 16.7624 16.5577 16.3721 16.7907C16.1936 16.8966 16.003 16.8542 15.8608 16.712C15.7609 16.6122 15.7216 16.4972 15.77 16.355C15.8124 16.2309 15.8487 16.1069 15.8729 15.9768C15.9092 15.7892 15.8577 15.6197 15.7518 15.4624C15.7276 15.4291 15.7034 15.3958 15.6853 15.3625C15.5189 15.066 15.6096 14.7877 15.9304 14.6848C16.4266 14.5305 16.9046 14.591 17.3434 14.8784C17.3978 14.9147 17.4493 14.9541 17.5037 14.9934C17.5067 14.9964 17.5128 14.9904 17.537 14.9843C17.537 14.9026 17.537 14.8149 17.537 14.7241C17.534 14.6122 17.5854 14.5547 17.7004 14.5547C18.13 14.5547 18.5567 14.5547 18.9863 14.5547C19.0922 14.5547 19.1406 14.6091 19.1406 14.715C19.1406 15.4715 19.1406 16.2279 19.1406 16.9843C19.1406 17.0993 19.0922 17.1507 18.9772 17.1477C18.5234 17.1447 18.5597 17.1931 18.5597 16.7544C18.5597 16.2703 18.5597 15.7861 18.5597 15.302C18.5597 15.1296 18.5506 15.1326 18.3297 15.1265C18.1936 15.1235 18.13 15.1507 18.1331 15.3081C18.1421 15.8527 18.1361 16.3973 18.1361 16.942C18.1361 17.1114 18.1028 17.1477 17.9364 17.1477C17.5249 17.1507 17.537 17.181 17.54 16.7574C17.534 16.5184 17.534 16.2733 17.534 16.0554ZM16.3449 16.1341C16.3903 16.1311 16.4175 16.1371 16.4357 16.128C16.7352 15.9798 16.9954 15.7771 17.2193 15.529C17.2889 15.4503 17.2314 15.3989 17.1679 15.3625C16.9258 15.2264 16.6656 15.1629 16.3903 15.1659C16.245 15.1689 16.2208 15.2264 16.3086 15.3414C16.4357 15.5048 16.4629 15.6833 16.4084 15.8799C16.3872 15.9616 16.3691 16.0373 16.3449 16.1341Z" fill="#4B4A4A"/>
<path d="M13.9403 15.1293C13.7073 15.1293 13.4744 15.1262 13.2444 15.1323C13.1113 15.1353 13.0538 15.093 13.0508 14.9508C13.0508 14.5635 13.0447 14.5635 13.438 14.5635C13.7467 14.5635 14.0523 14.5635 14.3609 14.5635C14.4577 14.5635 14.5636 14.5544 14.5606 14.4364C14.5606 14.3154 14.4607 14.267 14.3457 14.2791C14.1249 14.2972 13.907 14.3365 13.6861 14.3396C13.556 14.3396 13.4138 14.3063 13.2928 14.2549C13.0901 14.1671 13.0477 13.8464 13.2141 13.7012C13.2505 13.6709 13.3442 13.6558 13.3745 13.68C13.668 13.9039 13.9857 13.8131 14.3034 13.7647C14.4063 13.7496 14.5152 13.7375 14.6181 13.7526C14.9811 13.8101 15.1566 14.1096 15.0538 14.4727C15.0477 14.4969 15.0417 14.5211 15.0326 14.5635C15.1233 14.5635 15.2081 14.5635 15.2928 14.5635C15.4078 14.5635 15.4713 14.6089 15.4683 14.7359C15.4622 15.1716 15.5106 15.1323 15.087 15.1323C14.9358 15.1323 14.7845 15.1353 14.6332 15.1323C14.5485 15.1293 14.5091 15.1505 14.5031 15.2473C14.4849 15.6285 14.5424 15.6769 14.9116 15.5922C15.0144 15.568 15.1173 15.5408 15.2202 15.5226C15.3472 15.5014 15.4562 15.568 15.4622 15.689C15.4713 15.919 15.4925 16.158 15.4471 16.3819C15.3684 16.7904 15.0598 17.0052 14.6846 17.1202C14.3851 17.214 14.0765 17.1958 13.7769 17.1111C13.3382 16.984 13.0538 16.5877 13.0296 16.0672C13.0205 15.8736 13.0417 15.6769 13.0598 15.4803C13.0689 15.3713 13.1385 15.3078 13.2565 15.3229C13.2928 15.3259 13.3261 15.3229 13.3624 15.3229C13.5651 15.3229 13.5833 15.3501 13.5924 15.5468C13.6045 15.7556 13.6196 15.9674 13.6559 16.1762C13.6952 16.4122 13.8526 16.5513 14.0916 16.5634C14.2641 16.5695 14.4395 16.5544 14.612 16.5241C14.6907 16.512 14.7724 16.4515 14.8238 16.388C14.8752 16.3244 14.8873 16.2306 14.9176 16.1489C14.845 16.1459 14.7724 16.1368 14.7028 16.1429C14.5787 16.155 14.4547 16.1883 14.3306 16.1883C14.0674 16.1883 13.9706 16.0824 13.9675 15.8161C13.9645 15.6043 13.9645 15.3925 13.9645 15.1807C13.9585 15.1656 13.9524 15.1565 13.9403 15.1293Z" fill="#4B4A4A"/>
<path d="M21.6714 15.7587C21.6714 16.0825 21.6745 16.4032 21.6714 16.7269C21.6684 17.0386 21.4445 17.2262 21.148 17.1324C20.7002 16.9932 20.2463 16.9811 19.7864 17.0083C19.4597 17.0265 19.3507 16.9176 19.3447 16.5878C19.3447 16.5787 19.3447 16.5666 19.3447 16.5575C19.3447 16.1097 19.3447 16.1127 19.7622 15.9493C19.8439 15.9191 19.9649 15.8404 19.9649 15.7829C19.9619 15.6528 19.8258 15.6528 19.7199 15.6407C19.4324 15.6044 19.3507 15.5167 19.3447 15.2322C19.3417 15.0658 19.3477 14.8994 19.3447 14.733C19.3447 14.612 19.4052 14.5605 19.5232 14.5605C20.1798 14.5605 20.8333 14.5636 21.4899 14.5605C21.62 14.5605 21.6714 14.618 21.6684 14.7451C21.6684 15.081 21.6714 15.4198 21.6714 15.7587ZM20.5217 15.1294C20.4006 15.1294 20.2796 15.1263 20.1586 15.1324C20.1193 15.1354 20.083 15.1627 20.0436 15.1778C20.0648 15.2141 20.0769 15.2686 20.1102 15.2867C20.1828 15.3291 20.2675 15.3533 20.3462 15.3835C20.6699 15.5106 20.7244 15.8616 20.446 16.0764C20.3643 16.14 20.2615 16.1763 20.1737 16.2368C20.1283 16.267 20.1011 16.3215 20.0648 16.3669C20.1132 16.3911 20.1616 16.4304 20.2131 16.4334C20.4612 16.4577 20.7123 16.4728 20.9634 16.494C21.0663 16.503 21.1026 16.4607 21.0996 16.3639C21.0935 16.264 21.0845 16.1642 21.0814 16.0613C21.0754 15.8192 21.0723 15.5772 21.0633 15.3351C21.0602 15.199 21.0028 15.1173 20.8515 15.1233C20.7426 15.1324 20.6306 15.1294 20.5217 15.1294Z" fill="#4B4A4A"/>
<path d="M20.4492 18.0004C20.2313 18.0004 20.0558 17.828 20.0528 17.6101C20.0528 17.3893 20.2192 17.2198 20.4431 17.2168C20.664 17.2168 20.8395 17.3862 20.8395 17.6041C20.8455 17.8219 20.667 18.0004 20.4492 18.0004Z" fill="#4B4A4A"/>
<path d="M20.779 11.8244C20.776 11.8244 20.776 11.8275 20.779 11.8244C20.428 12.2753 19.9772 12.6504 19.4538 12.9288C18.897 13.1951 18.2435 13.2919 17.6262 13.304C17.9379 13.1709 18.1557 12.8592 18.1557 12.4961C18.1557 12.0514 17.829 11.6853 17.4023 11.6247C18.5491 11.5854 19.4689 10.7533 19.5143 9.72158C19.5143 9.69435 19.5173 9.67015 19.5173 9.64291C19.5173 9.58845 19.5143 9.53399 19.5112 9.47953C19.5112 9.38573 19.5112 9.28286 19.5173 9.19511C19.5324 8.98029 19.8289 8.83203 19.8289 8.83203C19.8289 8.83203 20.7699 8.83203 21.0241 8.83203C21.2873 8.87137 21.369 9.15578 21.369 9.15578C21.5112 10.6505 20.8183 11.7609 20.779 11.8244Z" fill="#144A96"/>
<path d="M15.2076 7.47643C15.3449 6.93544 15.0175 6.38562 14.4766 6.24838C13.9356 6.11114 13.3857 6.43844 13.2485 6.97943C13.1113 7.52042 13.4386 8.07024 13.9796 8.20749C14.5205 8.34473 15.0704 8.01743 15.2076 7.47643Z" fill="#FED600"/>
<path d="M21.3574 7.461C21.4875 6.91822 21.1529 6.37275 20.6102 6.24265C20.0674 6.11255 19.5219 6.44709 19.3918 6.98987C19.2617 7.53265 19.5963 8.07812 20.139 8.20822C20.6818 8.33832 21.2273 8.00378 21.3574 7.461Z" fill="#144A96"/>
<path d="M18.1551 12.4972C18.1551 12.8603 17.9372 13.1719 17.6256 13.3051C17.3714 13.3111 17.1233 13.302 16.8933 13.2839C16.0673 13.2203 15.4319 13.0509 15.4077 13.0449C14.5666 12.6606 13.8858 12.0313 13.4834 11.2597C13.4804 11.2537 13.4774 11.2476 13.4713 11.2385C13.1687 10.6455 13.2202 9.1629 13.2202 9.1629C13.2262 8.92085 13.5197 8.83008 13.5197 8.83008H14.7118C14.9418 8.85428 15.0568 9.12962 15.0568 9.12962L15.1082 9.49573C15.0689 9.67727 15.1052 9.89512 15.1627 10.0827C15.199 10.2279 15.2534 10.3671 15.323 10.5003C15.323 10.5033 15.326 10.5033 15.326 10.5033L15.3291 10.5063C15.6679 11.1356 16.3639 11.5774 17.1778 11.6228C17.2231 11.6258 17.2655 11.6258 17.3109 11.6258C17.3412 11.6258 17.3714 11.6258 17.3986 11.6228C17.8253 11.6863 18.1551 12.0524 18.1551 12.4972Z" fill="#FED600"/>
</svg>
